<svg width="129" height="30" viewBox="0 0 129 30" fill="none" xmlns="http://www.w3.org/2000/svg">
<g clip-path="url(#clip0_10158_627)">
<path d="M43.8498 27.6396L45.739 21.8353H54.924L56.8132 27.6396H62.5803L53.8054 2.18506H46.8701L38.0828 27.6396H43.8498ZM47.1062 17.6343L50.2383 8.00182H50.4372L53.5693 17.6343H47.1062Z" fill="#848484"/>
<path d="M65.0546 27.6396H70.3493V16.1801C70.3493 14.0672 71.6917 12.6627 73.4566 12.6627C75.1966 12.6627 76.365 13.8559 76.365 15.7326V27.6396H81.4981V15.9812C81.4981 14.005 82.6292 12.6627 84.5557 12.6627C86.246 12.6627 87.5138 13.7191 87.5138 15.8445V27.6396H92.7961V14.8005C92.7961 10.6616 90.3351 8.30012 86.7804 8.30012C83.9839 8.30012 81.8089 9.72945 81.0258 11.9169H80.827C80.2179 9.70459 78.2666 8.30012 75.6441 8.30012C73.0713 8.30012 71.1199 9.6673 70.3245 11.9169H70.1008V8.54869H65.0546V27.6396Z" fill="#848484"/>
<path d="M105.189 28.0125C109.912 28.0125 113.094 25.7131 113.839 22.1709L108.942 21.8477C108.408 23.3019 107.041 24.0601 105.276 24.0601C102.628 24.0601 100.95 22.3076 100.95 19.4613V19.4489H113.951V17.9947C113.951 11.5068 110.024 8.30012 104.977 8.30012C99.3595 8.30012 95.7178 12.2898 95.7178 18.1812C95.7178 24.2341 99.3098 28.0125 105.189 28.0125ZM100.95 16.1677C101.062 13.9926 102.715 12.2525 105.064 12.2525C107.364 12.2525 108.955 13.8932 108.967 16.1677H100.95Z" fill="#848484"/>
<path d="M116.916 27.6396H122.211V16.8388C122.211 14.4897 123.926 12.874 126.263 12.874C126.996 12.874 128.003 12.9983 128.5 13.1598V8.46169C128.028 8.34983 127.369 8.27526 126.835 8.27526C124.697 8.27526 122.944 9.51816 122.248 11.8797H122.05V8.54869H116.916V27.6396Z" fill="#848484"/>
<path d="M33.0776 1.59437C33.873 1.27617 34.6742 2.04031 34.3939 2.84995L25.8399 27.5622C25.6369 28.1488 24.954 28.4106 24.4109 28.1101L2.0746 15.7544C1.33669 15.3462 1.40428 14.2641 2.18725 13.9509L33.0776 1.59437Z" fill="#848484"/>
</g>
<defs>
<clipPath id="clip0_10158_627">
<rect width="128" height="30" fill="white" transform="translate(0.75)"/>
</clipPath>
</defs>
</svg>
