<svg width="115" height="29" viewBox="0 0 115 29" fill="none" xmlns="http://www.w3.org/2000/svg">
<path d="M6.31997 28.24C4.50664 28.24 3.11997 27.8 2.15997 26.92C1.19997 26.0133 0.719971 24.7467 0.719971 23.12C0.719971 22.32 0.813304 21.56 0.999971 20.84L5.27997 0.800002L11.2 0L9.27997 9C10.0266 8.54667 10.64 8.25333 11.12 8.12C11.6 7.96 12.08 7.88 12.56 7.88C15.7066 7.88 17.28 10.16 17.28 14.72C17.28 16.56 16.92 18.5333 16.2 20.64C15.5066 22.72 14.3333 24.5067 12.68 26C11.0533 27.4933 8.9333 28.24 6.31997 28.24ZM8.55997 24.36C9.38664 24.36 10.16 23.8533 10.88 22.84C11.6 21.8 12.1733 20.52 12.6 19C13.0266 17.4533 13.24 15.9733 13.24 14.56C13.24 13.4933 13.0533 12.5867 12.68 11.84C12.3066 11.0933 11.7866 10.72 11.12 10.72C10.72 10.72 10.2666 10.7867 9.75997 10.92C9.27997 11.0267 8.94664 11.2 8.75997 11.44L6.55997 21.6C6.47997 21.92 6.43997 22.2267 6.43997 22.52C6.43997 23.7467 7.14664 24.36 8.55997 24.36Z" fill="#848484"/>
<path d="M22.1734 28.24C20.8934 28.24 19.8534 27.84 19.0534 27.04C18.2801 26.24 17.8934 25.04 17.8934 23.44C17.8934 22.7733 18.0001 21.9067 18.2134 20.84L20.9334 8H26.6934L23.8134 21.6C23.7334 22 23.6934 22.3733 23.6934 22.72C23.6934 23.8133 24.0934 24.36 24.8934 24.36C25.6401 24.36 26.2801 24.0533 26.8134 23.44C27.3467 22.8 27.7734 21.9333 28.0934 20.84L30.8134 8H36.5734L33.6934 21.6C33.5867 22 33.5334 22.4267 33.5334 22.88C33.5334 23.4133 33.6534 23.8 33.8934 24.04C34.1601 24.2533 34.5867 24.36 35.1734 24.36C35.9201 24.36 36.5601 24.04 37.0934 23.4C37.6534 22.76 38.0934 21.9067 38.4134 20.84H40.0934C39.1067 23.72 37.8801 25.68 36.4134 26.72C34.9734 27.7333 33.5201 28.24 32.0534 28.24C30.9067 28.24 29.9867 27.92 29.2934 27.28C28.6267 26.64 28.2267 25.6933 28.0934 24.44C27.1867 25.9067 26.2267 26.9067 25.2134 27.44C24.2267 27.9733 23.2134 28.24 22.1734 28.24Z" fill="#848484"/>
<path d="M43.1687 28.24C41.3554 28.24 39.9687 27.8 39.0087 26.92C38.0487 26.0133 37.5687 24.7467 37.5687 23.12C37.5687 22.32 37.6621 21.56 37.8487 20.84L42.1287 0.800002L48.0487 0L46.1287 9C46.8754 8.54667 47.4887 8.25333 47.9687 8.12C48.4487 7.96 48.9287 7.88 49.4087 7.88C52.5554 7.88 54.1287 10.16 54.1287 14.72C54.1287 16.56 53.7687 18.5333 53.0487 20.64C52.3554 22.72 51.1821 24.5067 49.5287 26C47.9021 27.4933 45.7821 28.24 43.1687 28.24ZM45.4087 24.36C46.2354 24.36 47.0087 23.8533 47.7287 22.84C48.4487 21.8 49.0221 20.52 49.4487 19C49.8754 17.4533 50.0887 15.9733 50.0887 14.56C50.0887 13.4933 49.9021 12.5867 49.5287 11.84C49.1554 11.0933 48.6354 10.72 47.9687 10.72C47.5687 10.72 47.1154 10.7867 46.6087 10.92C46.1287 11.0267 45.7954 11.2 45.6087 11.44L43.4087 21.6C43.3287 21.92 43.2887 22.2267 43.2887 22.52C43.2887 23.7467 43.9954 24.36 45.4087 24.36Z" fill="#848484"/>
<path d="M60.3822 28.24C58.5688 28.24 57.1822 27.8 56.2222 26.92C55.2622 26.0133 54.7822 24.7467 54.7822 23.12C54.7822 22.32 54.8755 21.56 55.0622 20.84L59.3422 0.800002L65.2622 0L63.3422 9C64.0888 8.54667 64.7022 8.25333 65.1822 8.12C65.6622 7.96 66.1422 7.88 66.6222 7.88C69.7688 7.88 71.3422 10.16 71.3422 14.72C71.3422 16.56 70.9822 18.5333 70.2622 20.64C69.5688 22.72 68.3955 24.5067 66.7422 26C65.1155 27.4933 62.9955 28.24 60.3822 28.24ZM62.6222 24.36C63.4488 24.36 64.2222 23.8533 64.9422 22.84C65.6622 21.8 66.2355 20.52 66.6622 19C67.0888 17.4533 67.3022 15.9733 67.3022 14.56C67.3022 13.4933 67.1155 12.5867 66.7422 11.84C66.3688 11.0933 65.8488 10.72 65.1822 10.72C64.7822 10.72 64.3288 10.7867 63.8222 10.92C63.3422 11.0267 63.0088 11.2 62.8222 11.44L60.6222 21.6C60.5422 21.92 60.5022 22.2267 60.5022 22.52C60.5022 23.7467 61.2088 24.36 62.6222 24.36Z" fill="#848484"/>
<path d="M77.5956 28.24C75.7823 28.24 74.3956 27.8 73.4356 26.92C72.4756 26.0133 71.9956 24.7467 71.9956 23.12C71.9956 22.32 72.0889 21.56 72.2756 20.84L76.5556 0.800002L82.4756 0L80.5556 9C81.3023 8.54667 81.9156 8.25333 82.3956 8.12C82.8756 7.96 83.3556 7.88 83.8356 7.88C86.9823 7.88 88.5556 10.16 88.5556 14.72C88.5556 16.56 88.1956 18.5333 87.4756 20.64C86.7823 22.72 85.6089 24.5067 83.9556 26C82.3289 27.4933 80.2089 28.24 77.5956 28.24ZM79.8356 24.36C80.6623 24.36 81.4356 23.8533 82.1556 22.84C82.8756 21.8 83.4489 20.52 83.8756 19C84.3023 17.4533 84.5156 15.9733 84.5156 14.56C84.5156 13.4933 84.3289 12.5867 83.9556 11.84C83.5823 11.0933 83.0623 10.72 82.3956 10.72C81.9956 10.72 81.5423 10.7867 81.0356 10.92C80.5556 11.0267 80.2223 11.2 80.0356 11.44L77.8356 21.6C77.7556 21.92 77.7156 22.2267 77.7156 22.52C77.7156 23.7467 78.4223 24.36 79.8356 24.36Z" fill="#848484"/>
<path d="M93.449 28.24C92.169 28.24 91.129 27.84 90.329 27.04C89.5557 26.24 89.169 25.04 89.169 23.44C89.169 22.7733 89.2757 21.9067 89.489 20.84L93.769 0.800002L99.689 0L95.089 21.6C94.9824 22 94.929 22.4267 94.929 22.88C94.929 23.4133 95.049 23.8 95.289 24.04C95.5557 24.2533 95.9824 24.36 96.569 24.36C97.3424 24.36 98.0624 24.04 98.729 23.4C99.3957 22.7333 99.8757 21.88 100.169 20.84H101.849C100.862 23.72 99.5957 25.68 98.049 26.72C96.5024 27.7333 94.969 28.24 93.449 28.24Z" fill="#848484"/>
<path d="M105.233 28.24C103.286 28.24 101.766 27.7333 100.673 26.72C99.5798 25.68 99.0331 24.0667 99.0331 21.88C99.0331 20.04 99.3931 18.0133 100.113 15.8C100.833 13.5867 102.006 11.68 103.633 10.08C105.26 8.45334 107.326 7.64 109.833 7.64C112.766 7.64 114.233 8.92 114.233 11.48C114.233 12.9733 113.806 14.3467 112.953 15.6C112.1 16.8533 110.966 17.8667 109.553 18.64C108.14 19.3867 106.633 19.8133 105.033 19.92C104.98 20.5067 104.953 20.9067 104.953 21.12C104.953 23.3333 105.78 24.44 107.433 24.44C108.18 24.44 108.98 24.24 109.833 23.84C110.686 23.44 111.46 22.9333 112.153 22.32C111.433 26.2667 109.126 28.24 105.233 28.24ZM105.313 18C106.326 17.9733 107.273 17.64 108.153 17C109.06 16.36 109.78 15.5467 110.313 14.56C110.873 13.5467 111.153 12.4933 111.153 11.4C111.153 10.3067 110.82 9.76 110.153 9.76C109.22 9.76 108.286 10.6133 107.353 12.32C106.446 14 105.766 15.8933 105.313 18Z" fill="#848484"/>
</svg>
