<svg width="130" height="30" viewBox="0 0 130 30" fill="none" xmlns="http://www.w3.org/2000/svg">
<path d="M18.6449 5.58C18.6449 5.69667 18.5983 5.80167 18.5049 5.895C18.4349 5.965 18.3416 6 18.2249 6H6.28993C6.17327 6 6.11493 6.05833 6.11493 6.175V12.72C6.11493 12.8367 6.17327 12.895 6.28993 12.895H14.3049C14.4216 12.895 14.5149 12.9417 14.5849 13.035C14.6783 13.105 14.7249 13.1983 14.7249 13.315V15.975C14.7249 16.0917 14.6783 16.1967 14.5849 16.29C14.5149 16.36 14.4216 16.395 14.3049 16.395H6.28993C6.17327 16.395 6.11493 16.4533 6.11493 16.57V23.325C6.11493 23.4417 6.17327 23.5 6.28993 23.5H18.2249C18.3416 23.5 18.4349 23.5467 18.5049 23.64C18.5983 23.71 18.6449 23.8033 18.6449 23.92V26.58C18.6449 26.6967 18.5983 26.8017 18.5049 26.895C18.4349 26.965 18.3416 27 18.2249 27H2.47493C2.35826 27 2.25326 26.965 2.15993 26.895C2.08993 26.8017 2.05493 26.6967 2.05493 26.58V2.92C2.05493 2.80333 2.08993 2.71 2.15993 2.64C2.25326 2.54667 2.35826 2.5 2.47493 2.5H18.2249C18.3416 2.5 18.4349 2.54667 18.5049 2.64C18.5983 2.71 18.6449 2.80333 18.6449 2.92V5.58Z" fill="#848484"/>
<path d="M30.4678 8.835C32.3578 8.835 33.8628 9.395 34.9828 10.515C36.1262 11.635 36.6978 13.1633 36.6978 15.1V26.58C36.6978 26.6967 36.6512 26.8017 36.5578 26.895C36.4878 26.965 36.3945 27 36.2778 27H33.0578C32.9412 27 32.8362 26.965 32.7428 26.895C32.6728 26.8017 32.6378 26.6967 32.6378 26.58V15.94C32.6378 14.8667 32.3345 14.0033 31.7278 13.35C31.1212 12.6733 30.3162 12.335 29.3128 12.335C28.3095 12.335 27.4928 12.6617 26.8628 13.315C26.2562 13.9683 25.9528 14.8317 25.9528 15.905V26.58C25.9528 26.6967 25.9062 26.8017 25.8128 26.895C25.7428 26.965 25.6495 27 25.5328 27H22.3128C22.1962 27 22.0912 26.965 21.9978 26.895C21.9278 26.8017 21.8928 26.6967 21.8928 26.58V9.535C21.8928 9.41833 21.9278 9.325 21.9978 9.255C22.0912 9.16167 22.1962 9.115 22.3128 9.115H25.5328C25.6495 9.115 25.7428 9.16167 25.8128 9.255C25.9062 9.325 25.9528 9.41833 25.9528 9.535V10.655C25.9528 10.725 25.9762 10.7717 26.0228 10.795C26.0695 10.8183 26.1045 10.795 26.1278 10.725C27.0845 9.465 28.5312 8.835 30.4678 8.835Z" fill="#848484"/>
<path d="M48.9817 8.835C50.8717 8.835 52.3767 9.395 53.4967 10.515C54.6401 11.635 55.2117 13.1633 55.2117 15.1V26.58C55.2117 26.6967 55.1651 26.8017 55.0717 26.895C55.0017 26.965 54.9084 27 54.7917 27H51.5717C51.4551 27 51.3501 26.965 51.2567 26.895C51.1867 26.8017 51.1517 26.6967 51.1517 26.58V15.94C51.1517 14.8667 50.8484 14.0033 50.2417 13.35C49.6351 12.6733 48.8301 12.335 47.8267 12.335C46.8234 12.335 46.0067 12.6617 45.3767 13.315C44.7701 13.9683 44.4667 14.8317 44.4667 15.905V26.58C44.4667 26.6967 44.4201 26.8017 44.3267 26.895C44.2567 26.965 44.1634 27 44.0467 27H40.8267C40.7101 27 40.6051 26.965 40.5117 26.895C40.4417 26.8017 40.4067 26.6967 40.4067 26.58V2.92C40.4067 2.80333 40.4417 2.71 40.5117 2.64C40.6051 2.54667 40.7101 2.5 40.8267 2.5H44.0467C44.1634 2.5 44.2567 2.54667 44.3267 2.64C44.4201 2.71 44.4667 2.80333 44.4667 2.92V10.655C44.4667 10.725 44.4901 10.7717 44.5367 10.795C44.5834 10.8183 44.6184 10.795 44.6417 10.725C45.5984 9.465 47.0451 8.835 48.9817 8.835Z" fill="#848484"/>
<path d="M65.7798 8.835C67.2498 8.835 68.5448 9.09167 69.6648 9.605C70.7848 10.1183 71.6481 10.83 72.2548 11.74C72.8615 12.6267 73.1648 13.6417 73.1648 14.785V26.58C73.1648 26.6967 73.1181 26.8017 73.0248 26.895C72.9548 26.965 72.8615 27 72.7448 27H69.5248C69.4081 27 69.3031 26.965 69.2098 26.895C69.1398 26.8017 69.1048 26.6967 69.1048 26.58V25.46C69.1048 25.39 69.0815 25.355 69.0348 25.355C68.9881 25.3317 68.9415 25.3433 68.8948 25.39C67.7515 26.65 66.0948 27.28 63.9248 27.28C62.1748 27.28 60.7281 26.8367 59.5848 25.95C58.4648 25.0633 57.9048 23.745 57.9048 21.995C57.9048 20.175 58.5348 18.7633 59.7948 17.76C61.0781 16.7333 62.8748 16.22 65.1848 16.22H68.9298C69.0465 16.22 69.1048 16.1617 69.1048 16.045V15.205C69.1048 14.295 68.8365 13.595 68.2998 13.105C67.7631 12.5917 66.9581 12.335 65.8848 12.335C64.9981 12.335 64.2748 12.4983 63.7148 12.825C63.1781 13.1283 62.8398 13.56 62.6998 14.12C62.6298 14.4 62.4665 14.5167 62.2098 14.47L58.8148 14.05C58.6981 14.0267 58.5931 13.9917 58.4998 13.945C58.4298 13.875 58.4065 13.7933 58.4298 13.7C58.6165 12.2767 59.3748 11.11 60.7048 10.2C62.0581 9.29 63.7498 8.835 65.7798 8.835ZM64.9398 24.06C66.0831 24.06 67.0631 23.7567 67.8798 23.15C68.6965 22.5433 69.1048 21.7733 69.1048 20.84V19.195C69.1048 19.0783 69.0465 19.02 68.9298 19.02H65.9898C64.7531 19.02 63.7731 19.2533 63.0498 19.72C62.3498 20.1867 61.9998 20.8517 61.9998 21.715C61.9998 22.4617 62.2681 23.045 62.8048 23.465C63.3648 23.8617 64.0765 24.06 64.9398 24.06Z" fill="#848484"/>
<path d="M85.326 8.835C87.216 8.835 88.7209 9.395 89.841 10.515C90.9843 11.635 91.5559 13.1633 91.5559 15.1V26.58C91.5559 26.6967 91.5093 26.8017 91.4159 26.895C91.3459 26.965 91.2526 27 91.1359 27H87.9159C87.7993 27 87.6943 26.965 87.6009 26.895C87.5309 26.8017 87.4959 26.6967 87.4959 26.58V15.94C87.4959 14.8667 87.1926 14.0033 86.5859 13.35C85.9793 12.6733 85.1743 12.335 84.171 12.335C83.1676 12.335 82.3509 12.6617 81.7209 13.315C81.1143 13.9683 80.811 14.8317 80.811 15.905V26.58C80.811 26.6967 80.7643 26.8017 80.671 26.895C80.601 26.965 80.5076 27 80.3909 27H77.1709C77.0543 27 76.9493 26.965 76.8559 26.895C76.7859 26.8017 76.7509 26.6967 76.7509 26.58V9.535C76.7509 9.41833 76.7859 9.325 76.8559 9.255C76.9493 9.16167 77.0543 9.115 77.1709 9.115H80.3909C80.5076 9.115 80.601 9.16167 80.671 9.255C80.7643 9.325 80.811 9.41833 80.811 9.535V10.655C80.811 10.725 80.8343 10.7717 80.881 10.795C80.9276 10.8183 80.9626 10.795 80.9859 10.725C81.9426 9.465 83.3893 8.835 85.326 8.835Z" fill="#848484"/>
<path d="M102.617 27.28C100.821 27.28 99.269 26.825 97.9623 25.915C96.6557 24.9817 95.7457 23.7333 95.2323 22.17C94.859 21.12 94.6723 19.72 94.6723 17.97C94.6723 16.29 94.859 14.9133 95.2323 13.84C95.7223 12.3 96.6207 11.0867 97.9273 10.2C99.2573 9.29 100.821 8.835 102.617 8.835C104.437 8.835 106.024 9.29 107.377 10.2C108.731 11.11 109.629 12.2533 110.072 13.63C110.189 14.0033 110.271 14.3767 110.317 14.75V14.82C110.317 15.0533 110.189 15.1933 109.932 15.24L106.782 15.695H106.712C106.502 15.695 106.362 15.5783 106.292 15.345C106.292 15.2283 106.281 15.135 106.257 15.065C106.211 14.8783 106.164 14.715 106.117 14.575C105.907 13.9217 105.487 13.385 104.857 12.965C104.227 12.545 103.481 12.335 102.617 12.335C101.731 12.335 100.972 12.5683 100.342 13.035C99.7356 13.4783 99.3273 14.0967 99.1173 14.89C98.884 15.6367 98.7673 16.675 98.7673 18.005C98.7673 19.2883 98.8723 20.3267 99.0823 21.12C99.3157 21.9367 99.7356 22.59 100.342 23.08C100.949 23.5467 101.707 23.78 102.617 23.78C103.504 23.78 104.262 23.5583 104.892 23.115C105.546 22.6483 105.966 22.03 106.152 21.26C106.176 21.2133 106.187 21.155 106.187 21.085C106.211 21.0617 106.222 21.0267 106.222 20.98C106.292 20.7 106.456 20.5833 106.712 20.63L109.862 21.12C109.979 21.1433 110.072 21.2017 110.142 21.295C110.236 21.365 110.271 21.47 110.247 21.61C110.177 21.9833 110.119 22.2517 110.072 22.415C109.629 23.9083 108.731 25.0983 107.377 25.985C106.024 26.8483 104.437 27.28 102.617 27.28Z" fill="#848484"/>
<path d="M128.18 16.045C128.273 16.6283 128.32 17.2817 128.32 18.005L128.285 19.09C128.285 19.37 128.145 19.51 127.865 19.51H116.91C116.793 19.51 116.735 19.5683 116.735 19.685C116.805 20.455 116.91 20.98 117.05 21.26C117.61 22.94 118.975 23.7917 121.145 23.815C122.732 23.815 123.992 23.1617 124.925 21.855C125.018 21.715 125.135 21.645 125.275 21.645C125.368 21.645 125.45 21.68 125.52 21.75L127.69 23.535C127.9 23.6983 127.935 23.885 127.795 24.095C127.072 25.1217 126.104 25.915 124.89 26.475C123.7 27.035 122.37 27.315 120.9 27.315C119.08 27.315 117.528 26.9067 116.245 26.09C114.985 25.2733 114.063 24.13 113.48 22.66C112.943 21.4 112.675 19.65 112.675 17.41C112.675 16.0567 112.815 14.96 113.095 14.12C113.562 12.4867 114.437 11.2033 115.72 10.27C117.027 9.31333 118.59 8.835 120.41 8.835C125.007 8.835 127.597 11.2383 128.18 16.045ZM120.41 12.335C119.547 12.335 118.824 12.5567 118.24 13C117.68 13.42 117.283 14.015 117.05 14.785C116.91 15.1817 116.817 15.695 116.77 16.325C116.723 16.4417 116.77 16.5 116.91 16.5H124.015C124.132 16.5 124.19 16.4417 124.19 16.325C124.143 15.7417 124.073 15.2983 123.98 14.995C123.77 14.155 123.35 13.5017 122.72 13.035C122.113 12.5683 121.343 12.335 120.41 12.335Z" fill="#848484"/>
</svg>
