<svg width="124" height="109" viewBox="0 0 124 109" fill="none" xmlns="http://www.w3.org/2000/svg">
<path d="M62.3721 108.49C44.354 108.49 26.3359 108.49 8.31778 108.49C7.43762 108.49 6.54607 108.49 5.66211 108.4C1.15126 107.98 -0.662185 104.952 1.26128 100.858C2.93056 97.3228 4.75159 93.8788 6.51951 90.3818C14.8659 73.9165 23.2123 57.4537 31.5587 40.9934C31.8167 40.4906 32.0861 39.9878 32.3858 39.5077C34.4875 36.1506 37.902 35.6781 40.5918 38.5739C42.4887 40.6003 44.0935 42.8761 45.7855 45.0726C54.3849 56.2704 62.9842 67.4733 71.5835 78.6812C75.3394 83.558 80.0703 83.8227 84.4825 79.4373C86.6715 77.2597 88.8112 75.0254 91.0268 72.8668C95.0217 68.9729 99.5553 69.2073 102.818 73.7476C109.366 82.8586 115.751 92.0906 122.166 101.292C122.668 102.014 123.052 102.81 123.305 103.651C123.927 105.765 123.047 107.466 120.896 108.029C119.547 108.351 118.162 108.5 116.775 108.471C98.6511 108.502 80.5167 108.508 62.3721 108.49Z" fill="#777777"/>
<path d="M102.78 18.2689C102.775 21.7833 101.724 25.2172 99.7583 28.1353C97.7928 31.0534 95.0021 33.3242 91.7399 34.6598C88.4778 35.9955 84.8911 36.3359 81.4346 35.6378C77.9781 34.9397 74.8074 33.2347 72.3245 30.7387C69.8417 28.2428 68.1584 25.0685 67.4882 21.6181C66.818 18.1677 67.191 14.5968 68.5599 11.3579C69.9288 8.11902 72.2319 5.35812 75.1774 3.42521C78.1228 1.49229 81.5779 0.474414 85.1046 0.500615C89.8008 0.560084 94.2854 2.45606 97.5918 5.77982C100.898 9.10358 102.761 13.5889 102.78 18.2689Z" fill="#777777"/>
</svg>
