<svg width="38" height="38" viewBox="0 0 38 38" fill="none" xmlns="http://www.w3.org/2000/svg">
<path fill-rule="evenodd" clip-rule="evenodd" d="M17.6875 2.86494C9.3612 3.53303 2.8125 10.5017 2.8125 19C2.8125 27.9401 10.0599 35.1875 19 35.1875C27.4983 35.1875 34.467 28.6388 35.1351 20.3125H17.6875V2.86494ZM20.3125 2.86494V17.6875H35.1351C34.5017 9.79412 28.2059 3.49829 20.3125 2.86494ZM0.1875 19C0.1875 8.61014 8.61014 0.1875 19 0.1875C29.3899 0.1875 37.8125 8.61014 37.8125 19C37.8125 29.3899 29.3899 37.8125 19 37.8125C8.61014 37.8125 0.1875 29.3899 0.1875 19Z" fill="#2E2B26"/>
</svg>
