<svg width="56" height="56" viewBox="0 0 56 56" fill="none" xmlns="http://www.w3.org/2000/svg">
<path fill-rule="evenodd" clip-rule="evenodd" d="M27.9995 9.07632L42.6988 15.253L42.8053 15.9871L41.5064 16.1757C42.8053 15.9871 42.8053 15.9868 42.8053 15.9871L42.8072 16.0005L42.8119 16.0333L42.8285 16.1551C42.8425 16.2607 42.8624 16.4143 42.8861 16.6109C42.9334 17.0038 42.9962 17.5689 43.0589 18.2658C43.1843 19.6578 43.3104 21.5838 43.3122 23.7174C43.3159 27.8976 42.8492 33.1977 40.6977 36.7241C39.0341 39.4508 35.9401 41.9461 33.4034 43.7057C32.112 44.6016 30.9194 45.3374 30.0494 45.8494C29.6139 46.1058 29.2579 46.3068 29.0092 46.4447C28.8848 46.5136 28.7872 46.5668 28.7197 46.6032L28.6416 46.6451L28.6202 46.6564L28.6123 46.6606C28.6121 46.6608 28.6112 46.6612 27.9995 45.5C27.3877 46.6612 27.3875 46.6611 27.3873 46.661L27.3787 46.6564L27.3574 46.6451L27.2792 46.6031C27.2118 46.5667 27.1141 46.5136 26.9897 46.4446C26.741 46.3068 26.3851 46.1057 25.9496 45.8494C25.0798 45.3373 23.8872 44.6015 22.5959 43.7056C20.0594 41.946 16.9656 39.4506 15.3022 36.7241C13.1507 33.1977 12.6838 27.8976 12.6873 23.7175C12.6891 21.5839 12.815 19.6579 12.9403 18.2658C13.003 17.569 13.0657 17.0039 13.1131 16.6109C13.1367 16.4144 13.1566 16.2608 13.1707 16.1552L13.1873 16.0334L13.1919 16.0006L13.1932 15.9914L13.1936 15.9887C13.1936 15.9884 13.1938 15.9872 14.4927 16.1757L13.1936 15.9887L13.3003 15.253L27.9995 9.07632ZM15.6994 17.0923C15.6577 17.4501 15.6063 17.9281 15.5548 18.5011C15.4344 19.8381 15.314 21.6836 15.3123 23.7197C15.3088 27.8789 15.8069 32.5113 17.543 35.3569C18.9008 37.5824 21.5954 39.8167 24.0921 41.5488C25.3173 42.3988 26.4526 43.0994 27.2813 43.5872C27.5583 43.7503 27.8004 43.8892 27.9995 44.0017C28.1987 43.8892 28.4408 43.7503 28.7179 43.5872C29.5466 43.0994 30.6819 42.3988 31.9072 41.5489C34.4041 39.8168 37.099 37.5824 38.4568 35.3569C40.193 32.5114 40.6909 27.879 40.6872 23.7197C40.6854 21.6837 40.5649 19.8382 40.4445 18.5012C40.3929 17.9282 40.3415 17.4501 40.2998 17.0923L27.9995 11.9237L15.6994 17.0923ZM27.9995 45.5L27.3873 46.661L27.9995 46.9835L28.6123 46.6606L27.9995 45.5Z" fill="#2E2B26"/>
</svg>
