<svg width="157" height="36" viewBox="0 0 157 36" fill="none" xmlns="http://www.w3.org/2000/svg">
<path d="M3.706 27H9.79L15.406 15.876L17.71 27H23.542L32.47 9.18H26.062L21.166 20.592L19.186 9.18H13.138L7.594 20.592L6.01 9.18H0.25L3.706 27Z" fill="#848484"/>
<path d="M42.7466 8.532C36.7346 8.532 32.5226 12.96 31.8026 17.604C30.8666 23.22 34.6466 27.432 39.8306 27.468C43.1066 27.504 46.1666 26.28 48.2906 24.012L44.8706 21.06C43.8266 22.104 42.2426 22.788 40.5506 22.788C38.7866 22.788 37.2026 21.708 36.9146 19.692H50.3066C50.4506 19.116 50.5586 18.54 50.5946 17.964C50.9906 12.276 47.7506 8.532 42.7466 8.532ZM37.5266 16.02C38.4986 13.932 40.2986 12.996 42.0266 12.996C43.6826 12.996 45.1946 13.896 45.5906 16.02H37.5266Z" fill="#848484"/>
<path d="M63.3338 27.324C68.6258 27.324 72.1898 23.328 72.9818 18.072C73.8098 12.816 70.6058 8.856 66.0698 8.856C63.8738 8.856 61.9658 9.792 60.3818 11.304L62.1818 0H56.3498L52.0658 27H57.8978L58.2218 24.876C59.2298 26.316 60.9218 27.324 63.3338 27.324ZM62.6138 22.32C60.3458 22.32 58.9058 20.52 59.3018 18.072C59.6618 15.624 61.7138 13.824 63.9458 13.824C66.1778 13.824 67.5098 15.624 67.1138 18.072C66.7538 20.52 64.8458 22.32 62.6138 22.32Z" fill="#848484"/>
<path d="M73.0119 36H78.8439L80.6079 24.912C81.6519 26.316 83.3079 27.324 85.7199 27.324C90.9399 27.324 94.5759 23.328 95.3679 18.108C96.1959 12.852 93.0639 8.856 88.4559 8.856C86.1879 8.856 84.2799 9.864 82.7679 11.304L83.1279 9.18H77.2599L73.0119 36ZM84.9999 22.32C82.7319 22.32 81.2919 20.556 81.6879 18.108C82.0479 15.66 84.0999 13.824 86.3319 13.824C88.5639 13.824 89.8959 15.66 89.4999 18.072C89.1399 20.556 87.2319 22.32 84.9999 22.32Z" fill="#848484"/>
<path d="M104.074 27.324C106.594 27.324 108.466 26.46 109.87 24.984L109.546 27H115.378L118.186 9.18H112.354L112.03 11.34C110.95 9.792 109.33 8.856 106.954 8.856C102.094 8.856 98.134 12.816 97.306 18.072C96.478 23.328 99.574 27.324 104.074 27.324ZM106.27 22.32C104.074 22.32 102.598 20.52 102.994 18.072C103.426 15.624 105.406 13.824 107.638 13.824C109.906 13.824 111.382 15.624 110.95 18.072C110.554 20.592 108.538 22.32 106.27 22.32Z" fill="#848484"/>
<path d="M128.299 27.072C129.379 27.072 130.639 26.892 131.971 26.46L132.727 21.816C132.079 22.068 131.395 22.212 130.747 22.212C128.875 22.212 127.867 21.132 128.155 19.296L128.983 14.184H133.843L134.635 9.18H129.739L130.567 3.996H124.843L124.015 9.18H120.415L119.587 14.184H123.223L122.251 20.304C121.567 24.264 123.871 27.072 128.299 27.072Z" fill="#848484"/>
<path d="M135.001 27H140.797L142.237 18.036C142.705 15.516 144.289 13.86 146.449 13.86C148.609 13.86 149.653 15.408 149.221 18.18L147.817 27H153.649L155.125 17.712C155.989 12.384 152.965 8.964 148.645 8.964C146.521 8.964 144.685 9.756 143.317 11.088L145.081 0H139.285L135.001 27Z" fill="#848484"/>
</svg>
